{"glyphs":{"0":{"ha":978,"x_min":125,"x_max":1040,"o":"m 1022 561 l 989 401 q 924 245 971 318 q 812 117 878 172 q 667 31 746 63 q 504 0 588 0 l 460 0 q 310 31 376 0 q 201 117 243 63 q 142 245 158 172 q 143 401 125 318 l 176 561 q 242 717 194 644 q 355 845 289 790 q 501 931 421 900 q 664 963 581 963 l 708 963 q 858 931 792 963 q 966 845 924 900 q 1024 717 1008 790 q 1022 561 1040 644 m 829 401 l 863 561 q 864 655 874 611 q 829 732 854 699 q 764 784 804 765 q 674 803 724 803 l 629 803 q 532 784 579 803 q 444 732 485 765 q 376 655 404 699 q 338 561 349 611 l 304 401 q 303 308 293 351 q 338 231 313 264 q 403 180 364 199 q 493 161 443 161 l 538 161 q 635 180 588 161 q 723 231 683 199 q 790 308 763 264 q 829 401 818 351 z "},"1":{"ha":433,"x_min":194,"x_max":560,"o":"m 560 964 l 356 0 l 194 0 l 364 803 l 233 803 l 268 964 l 399 964 l 560 964 z "},"2":{"ha":796,"x_min":79,"x_max":871,"o":"m 754 160 l 721 0 l 319 0 l 79 0 l 147 321 l 181 481 l 340 481 l 307 321 l 272 160 l 353 160 l 754 160 m 857 642 l 822 481 l 661 481 l 696 642 q 697 704 703 675 q 673 755 690 733 q 629 789 656 776 q 569 801 603 801 l 249 801 l 283 963 l 604 963 q 724 938 671 963 q 811 869 776 913 q 858 767 846 825 q 857 642 871 708 z "},"3":{"ha":799,"x_min":81,"x_max":874,"o":"m 860 642 l 792 321 q 739 196 776 254 q 648 94 701 138 q 531 25 594 50 q 401 0 468 0 l 81 0 l 114 161 l 435 161 q 500 174 468 161 q 559 208 532 186 q 604 258 586 229 q 631 321 622 288 l 699 642 q 699 704 706 675 q 676 756 693 733 q 631 790 658 778 q 571 803 604 803 l 250 803 l 285 963 l 606 963 q 725 938 672 963 q 813 869 778 913 q 860 767 847 825 q 860 642 874 708 m 601 563 l 567 401 l 165 401 l 200 563 l 601 563 z "},"4":{"ha":806,"x_min":118,"x_max":914,"o":"m 914 963 l 710 0 l 549 0 l 700 715 l 364 400 l 554 400 l 519 240 l 118 240 l 153 400 l 753 963 l 914 963 z "},"5":{"ha":806,"x_min":82,"x_max":928,"o":"m 825 481 l 792 321 q 740 196 776 254 q 649 94 703 138 q 533 25 596 50 q 403 0 469 0 l 82 0 l 115 160 l 436 160 q 501 172 469 160 q 560 207 533 185 q 606 258 588 229 q 632 321 624 288 l 665 481 l 825 481 m 928 963 l 893 801 l 492 801 l 413 801 l 379 642 l 344 481 l 183 481 l 218 642 l 286 963 l 526 963 l 928 963 z "},"6":{"ha":843,"x_min":114,"x_max":861,"o":"m 660 561 q 750 542 710 561 q 817 491 790 524 q 852 415 843 458 q 851 321 861 371 q 799 196 836 254 q 709 94 763 138 q 592 25 656 50 q 463 0 529 0 l 382 0 q 262 25 315 0 q 174 94 208 50 q 127 196 140 138 q 129 321 114 254 l 197 642 q 249 767 211 708 q 339 869 286 825 q 456 938 392 913 q 586 963 519 963 l 746 963 l 826 963 l 792 803 l 711 803 l 551 803 q 487 790 518 803 q 428 756 456 778 q 383 704 401 733 q 357 642 364 675 l 289 321 q 288 258 281 288 q 312 207 294 229 q 356 172 329 185 q 415 160 382 160 l 496 160 q 560 172 529 160 q 619 207 592 185 q 664 258 646 229 q 690 321 682 288 q 678 378 697 354 q 626 401 660 401 l 547 401 l 467 401 l 386 401 l 419 561 l 500 561 l 581 561 l 660 561 z "},"7":{"ha":785,"x_min":74,"x_max":919,"o":"m 919 963 l 885 801 l 243 801 l 278 963 l 919 963 m 822 722 l 258 0 l 74 0 l 638 722 l 822 722 z "},"8":{"ha":874,"x_min":124,"x_max":944,"o":"m 931 642 q 897 555 919 593 q 833 481 874 517 q 865 407 858 444 q 863 321 872 369 q 810 196 847 254 q 719 94 772 138 q 602 25 665 50 q 472 0 539 0 l 393 0 q 272 25 326 0 q 184 94 218 50 q 137 196 150 138 q 139 321 124 254 q 172 407 149 369 q 235 481 196 444 q 203 555 211 517 q 207 642 196 593 q 258 767 221 708 q 349 869 296 825 q 466 938 401 913 q 597 963 531 963 l 676 963 q 796 938 743 963 q 883 869 849 913 q 931 767 918 825 q 931 642 944 708 m 671 561 q 733 585 704 561 q 769 642 763 608 q 770 704 776 675 q 746 755 764 733 q 701 789 728 776 q 642 801 675 801 l 563 801 q 497 789 529 801 q 439 755 465 776 q 394 704 413 733 q 368 642 375 675 q 379 585 361 608 q 431 561 397 561 l 511 561 l 590 561 l 671 561 m 701 321 q 690 377 708 354 q 638 400 671 400 l 557 400 l 478 400 l 397 400 q 335 377 364 400 q 300 321 307 354 q 299 258 292 288 q 323 207 306 229 q 367 172 340 185 q 426 160 393 160 l 506 160 q 571 172 539 160 q 630 207 603 185 q 675 258 657 229 q 701 321 693 288 z "},"9":{"ha":874,"x_min":190,"x_max":938,"o":"m 924 642 l 856 321 q 803 196 840 254 q 713 94 767 138 q 597 25 660 50 q 467 0 533 0 l 307 0 l 226 0 l 260 160 l 340 160 l 500 160 q 565 172 533 160 q 624 207 597 185 q 669 258 651 229 q 696 321 688 288 l 764 642 q 765 704 771 675 q 741 756 758 733 q 697 790 724 778 q 636 803 669 803 l 557 803 q 492 790 524 803 q 434 756 461 778 q 388 704 407 733 q 363 642 369 675 q 374 585 356 608 q 425 561 392 561 l 506 561 l 585 561 l 665 561 l 632 401 l 551 401 l 472 401 l 392 401 q 302 420 342 401 q 236 472 263 439 q 200 548 210 504 q 201 642 190 592 q 253 767 215 708 q 343 869 290 825 q 460 938 396 913 q 592 963 525 963 l 671 963 q 790 938 738 963 q 878 869 843 913 q 925 767 913 825 q 924 642 938 708 z "},"\u0000":{"ha":0,"x_min":0,"x_max":0,"o":""},"\r":{"ha":429,"x_min":0,"x_max":0,"o":""}," ":{"ha":451,"x_min":0,"x_max":0,"o":""},"E":{"ha":813,"x_min":144,"x_max":950,"o":"m 779 161 l 746 0 l 544 0 q 365 38 444 0 q 233 142 285 76 q 163 294 182 207 q 165 482 144 382 q 243 669 188 582 q 378 822 299 757 q 553 926 457 888 q 749 964 649 964 l 950 964 l 915 803 l 714 803 q 584 778 647 803 q 467 709 521 753 q 376 607 414 665 q 325 482 339 549 q 324 357 311 415 q 371 255 336 299 q 458 186 406 211 q 578 161 511 161 l 779 161 m 865 563 l 831 401 l 403 401 q 405 482 397 444 q 438 563 413 519 l 865 563 z "},"F":{"ha":782,"x_min":88,"x_max":924,"o":"m 924 963 l 889 801 l 497 801 l 532 963 l 924 963 m 757 561 l 724 400 l 332 400 l 247 0 l 88 0 l 292 963 l 451 963 l 365 561 l 757 561 z "},"G":{"ha":878,"x_min":151,"x_max":997,"o":"m 826 161 l 793 0 l 551 0 q 372 38 451 0 q 240 142 292 76 q 170 294 189 207 q 172 482 151 382 q 250 669 194 582 q 385 823 306 757 q 560 926 465 889 q 756 964 656 964 l 997 964 l 963 803 l 721 803 q 591 778 654 803 q 474 709 528 753 q 383 607 421 665 q 332 482 346 549 q 331 357 318 415 q 378 255 343 299 q 465 186 413 211 q 585 161 518 161 l 826 161 m 878 401 l 843 242 l 682 242 l 717 401 l 410 401 q 412 482 404 444 q 444 563 419 519 l 913 563 l 878 401 z "},"H":{"ha":892,"x_min":88,"x_max":1014,"o":"m 878 321 l 810 0 l 650 0 l 735 401 l 333 401 l 249 0 l 88 0 l 207 563 l 769 563 l 854 964 l 1014 964 l 929 563 l 894 401 l 878 321 m 453 964 l 385 643 l 224 643 l 292 964 l 453 964 z "},"I":{"ha":325,"x_min":86,"x_max":450,"o":"m 450 963 l 246 0 l 86 0 l 290 963 l 450 963 z "},"J":{"ha":467,"x_min":43,"x_max":568,"o":"m 568 963 l 432 321 q 380 196 417 254 q 290 94 343 138 q 173 25 236 50 q 43 0 110 0 l 76 160 q 141 172 110 160 q 199 207 172 185 q 244 258 226 229 q 271 321 263 288 l 407 963 l 568 963 z "},"K":{"ha":904,"x_min":92,"x_max":1050,"o":"m 1050 964 l 626 482 l 846 0 l 653 0 l 433 482 l 857 964 l 1050 964 m 456 964 l 251 0 l 92 0 l 296 964 l 456 964 z "},"L":{"ha":614,"x_min":71,"x_max":618,"o":"m 618 160 l 585 0 l 232 0 l 71 0 l 275 963 l 436 963 l 265 160 l 618 160 z "},"M":{"ha":1139,"x_min":92,"x_max":1246,"o":"m 1246 964 l 1042 0 l 882 0 l 997 546 l 718 104 l 678 314 l 1086 964 l 1246 964 m 457 964 l 654 0 l 481 0 l 368 546 l 253 0 l 92 0 l 296 964 l 457 964 z "},"N":{"ha":982,"x_min":89,"x_max":1096,"o":"m 1096 963 l 922 144 l 811 385 l 935 963 l 1096 963 m 453 963 l 892 0 l 731 0 l 699 0 l 392 674 l 249 0 l 89 0 l 293 963 l 453 963 z "},"O":{"ha":978,"x_min":125,"x_max":1040,"o":"m 1022 561 l 989 401 q 924 245 971 318 q 812 117 878 172 q 667 31 746 63 q 504 0 588 0 l 460 0 q 310 31 376 0 q 201 117 243 63 q 142 245 158 172 q 143 401 125 318 l 176 561 q 242 717 194 644 q 355 845 289 790 q 501 931 421 900 q 664 963 581 963 l 708 963 q 858 931 792 963 q 966 845 924 900 q 1024 717 1008 790 q 1022 561 1040 644 m 829 401 l 863 561 q 864 655 874 611 q 829 732 854 699 q 764 784 804 765 q 674 803 724 803 l 629 803 q 532 784 579 803 q 444 732 485 765 q 376 655 404 699 q 338 561 349 611 l 304 401 q 303 308 293 351 q 338 231 313 264 q 403 180 364 199 q 493 161 443 161 l 538 161 q 635 180 588 161 q 723 231 683 199 q 790 308 763 264 q 829 401 818 351 z "},"P":{"ha":826,"x_min":97,"x_max":921,"o":"m 654 963 q 774 938 721 963 q 861 869 826 913 q 908 767 896 825 q 907 642 921 708 q 855 517 892 575 q 765 415 818 458 q 648 346 711 371 q 518 321 585 321 l 326 321 l 258 0 l 97 0 l 199 482 l 279 482 l 551 482 q 617 494 585 482 q 675 529 649 507 q 720 580 701 551 q 746 642 739 608 q 747 704 753 675 q 724 756 740 733 q 680 790 707 778 q 619 803 653 803 l 267 803 l 301 963 l 463 963 l 654 963 z "},"Q":{"ha":975,"x_min":126,"x_max":1043,"o":"m 1026 563 l 992 401 q 953 292 979 343 q 886 192 928 242 l 821 371 q 826 386 824 378 q 831 401 829 394 l 865 563 q 866 656 875 613 q 831 733 857 700 q 765 784 806 765 q 675 803 725 803 l 631 803 q 533 784 581 803 q 447 733 486 765 q 378 656 407 700 q 340 563 350 613 l 306 401 q 304 308 294 351 q 340 231 314 264 q 405 180 365 199 q 494 161 444 161 l 539 161 q 615 172 575 161 l 553 346 l 738 346 l 818 122 q 669 28 742 57 q 506 0 596 0 l 461 0 q 311 32 378 0 q 202 118 244 64 q 143 245 160 172 q 144 401 126 318 l 179 563 q 244 719 196 646 q 357 846 292 792 q 502 932 422 900 q 665 964 582 964 l 710 964 q 859 932 793 964 q 968 846 925 900 q 1027 719 1011 792 q 1026 563 1043 646 z "},"R":{"ha":879,"x_min":99,"x_max":922,"o":"m 653 346 l 779 0 l 593 0 l 478 321 l 328 321 l 260 0 l 99 0 l 200 482 l 281 482 l 463 482 l 558 482 q 624 494 592 482 q 683 528 656 507 q 728 579 710 550 q 754 642 747 608 q 755 704 761 675 q 731 756 749 733 q 687 790 714 778 q 626 803 660 803 l 268 803 l 303 963 l 464 963 l 661 963 q 807 926 749 963 q 894 833 865 890 q 922 705 922 775 q 891 566 921 635 q 801 438 861 497 q 653 346 742 379 z "},"S":{"ha":869,"x_min":76,"x_max":978,"o":"m 875 482 l 842 321 q 790 196 826 254 q 699 94 753 138 q 583 25 646 50 q 453 0 519 0 l 76 0 l 110 161 l 486 161 q 551 174 519 161 q 609 208 582 186 q 654 258 636 229 q 681 321 672 288 l 714 482 l 875 482 m 978 964 l 943 803 l 567 803 q 502 790 533 803 q 444 756 471 778 q 398 705 417 733 q 372 643 379 676 l 338 482 l 178 482 l 213 643 q 264 768 226 710 q 354 870 301 826 q 471 939 407 914 q 601 964 535 964 l 978 964 z "},"T":{"ha":760,"x_min":199,"x_max":939,"o":"m 939 964 l 904 803 l 199 803 l 233 964 l 265 964 l 939 964 m 615 722 l 463 0 l 303 0 l 456 722 l 615 722 z "},"U":{"ha":960,"x_min":142,"x_max":1089,"o":"m 1089 963 l 969 401 q 904 245 951 318 q 791 117 857 172 q 646 31 725 63 q 483 0 567 0 l 476 0 q 326 31 393 0 q 217 117 260 63 q 158 245 174 172 q 160 401 142 318 l 279 963 l 440 963 l 354 561 l 321 401 q 319 308 310 351 q 355 231 329 264 q 420 180 381 199 q 510 161 460 161 l 517 161 q 615 180 567 161 q 702 231 663 199 q 769 308 742 264 q 808 401 797 351 l 842 561 l 928 963 l 1089 963 z "},"V":{"ha":1003,"x_min":217,"x_max":1193,"o":"m 1193 963 l 653 104 l 610 313 l 1019 963 l 1193 963 m 390 963 l 588 0 l 414 0 l 217 963 l 390 963 z "},"W":{"ha":1485,"x_min":218,"x_max":1676,"o":"m 1676 963 l 1135 104 l 1092 313 l 1501 963 l 1676 963 m 874 963 l 1071 0 l 896 0 l 821 369 l 653 104 l 611 313 l 778 578 l 699 963 l 874 963 m 1194 963 l 1018 682 l 975 890 l 1021 963 l 1194 963 m 392 963 l 589 0 l 415 0 l 218 963 l 392 963 z "},"X":{"ha":818,"x_min":71,"x_max":964,"o":"m 964 963 l 671 567 l 618 739 l 783 963 l 919 963 l 964 963 m 457 963 l 760 0 l 579 0 l 481 308 l 426 481 l 275 963 l 457 963 m 363 394 l 417 222 l 253 0 l 71 0 l 363 394 z "},"Y":{"ha":828,"x_min":235,"x_max":1006,"o":"m 1006 963 l 689 603 l 622 747 l 813 963 l 1006 963 m 624 529 l 513 0 l 353 0 l 454 481 l 235 963 l 428 963 l 624 529 z "},"Z":{"ha":875,"x_min":74,"x_max":1000,"o":"m 829 161 l 796 0 l 150 0 l 74 0 l 107 161 l 107 161 l 107 161 l 678 722 l 885 722 l 313 161 l 829 161 m 1000 964 l 965 803 l 243 803 l 278 964 l 1000 964 z "},"a":{"ha":833,"x_min":15,"x_max":818,"o":"m 621 963 l 818 0 l 276 0 l 376 161 l 611 161 l 532 546 l 289 161 l 189 0 l 15 0 l 621 963 z "},"b":{"ha":828,"x_min":82,"x_max":907,"o":"m 328 401 l 276 160 l 504 160 q 597 195 554 160 q 650 281 640 231 q 633 366 661 331 q 556 401 606 401 l 328 401 m 675 963 q 784 939 738 963 q 859 876 831 915 q 897 788 888 838 q 897 684 907 738 q 855 578 886 631 q 769 482 824 525 q 813 385 804 438 q 810 278 822 332 q 767 175 799 225 q 691 86 736 125 q 590 24 646 47 q 471 0 533 0 l 243 0 l 163 0 l 82 0 l 183 482 l 200 561 l 281 561 l 361 561 l 589 561 q 682 597 639 561 q 736 682 725 632 q 719 767 747 732 q 640 803 690 803 l 251 803 l 286 963 l 367 963 l 447 963 l 675 963 z "},"c":{"ha":775,"x_min":118,"x_max":918,"o":"m 747 160 l 714 0 l 519 0 q 340 38 419 0 q 208 140 260 75 q 137 293 156 206 q 139 481 118 381 q 216 668 160 581 q 352 822 272 756 q 528 925 432 888 q 724 963 624 963 l 918 963 l 883 801 l 689 801 q 558 776 622 801 q 440 708 493 751 q 350 606 388 664 q 299 481 313 547 q 297 356 285 414 q 344 253 310 297 q 433 185 379 210 q 553 160 486 160 l 747 160 z "},"d":{"ha":913,"x_min":83,"x_max":971,"o":"m 569 964 q 749 926 669 964 q 880 823 829 889 q 951 669 931 757 q 949 482 971 582 q 871 294 928 382 q 735 142 814 207 q 560 38 656 76 q 365 0 465 0 l 164 0 l 83 0 l 236 722 l 396 722 l 276 161 l 399 161 q 529 186 465 161 q 646 255 593 211 q 736 357 699 299 q 788 482 774 415 q 789 607 801 549 q 742 709 776 665 q 655 778 708 753 q 535 803 601 803 l 333 803 l 253 803 l 288 964 l 368 964 l 569 964 z "},"e":{"ha":813,"x_min":144,"x_max":950,"o":"m 779 161 l 746 0 l 544 0 q 365 38 444 0 q 233 142 285 76 q 163 294 182 207 q 165 482 144 382 q 243 669 188 582 q 378 822 299 757 q 553 926 457 888 q 749 964 649 964 l 950 964 l 915 803 l 714 803 q 584 778 647 803 q 467 709 521 753 q 376 607 414 665 q 325 482 339 549 q 324 357 311 415 q 371 255 336 299 q 458 186 406 211 q 578 161 511 161 l 779 161 m 865 563 l 831 401 l 403 401 q 405 482 397 444 q 438 563 413 519 l 865 563 z "},"f":{"ha":782,"x_min":88,"x_max":924,"o":"m 924 963 l 889 801 l 497 801 l 532 963 l 924 963 m 757 561 l 724 400 l 332 400 l 247 0 l 88 0 l 292 963 l 451 963 l 365 561 l 757 561 z "},"g":{"ha":878,"x_min":151,"x_max":997,"o":"m 826 161 l 793 0 l 551 0 q 372 38 451 0 q 240 142 292 76 q 170 294 189 207 q 172 482 151 382 q 250 669 194 582 q 385 823 306 757 q 560 926 465 889 q 756 964 656 964 l 997 964 l 963 803 l 721 803 q 591 778 654 803 q 474 709 528 753 q 383 607 421 665 q 332 482 346 549 q 331 357 318 415 q 378 255 343 299 q 465 186 413 211 q 585 161 518 161 l 826 161 m 878 401 l 843 242 l 682 242 l 717 401 l 410 401 q 412 482 404 444 q 444 563 419 519 l 913 563 l 878 401 z "},"h":{"ha":892,"x_min":88,"x_max":1014,"o":"m 878 321 l 810 0 l 650 0 l 735 401 l 333 401 l 249 0 l 88 0 l 207 563 l 769 563 l 854 964 l 1014 964 l 929 563 l 894 401 l 878 321 m 453 964 l 385 643 l 224 643 l 292 964 l 453 964 z "},"i":{"ha":325,"x_min":86,"x_max":450,"o":"m 450 963 l 246 0 l 86 0 l 290 963 l 450 963 z "},"j":{"ha":467,"x_min":43,"x_max":568,"o":"m 568 963 l 432 321 q 380 196 417 254 q 290 94 343 138 q 173 25 236 50 q 43 0 110 0 l 76 160 q 141 172 110 160 q 199 207 172 185 q 244 258 226 229 q 271 321 263 288 l 407 963 l 568 963 z "},"k":{"ha":904,"x_min":92,"x_max":1050,"o":"m 1050 964 l 626 482 l 846 0 l 653 0 l 433 482 l 857 964 l 1050 964 m 456 964 l 251 0 l 92 0 l 296 964 l 456 964 z "},"l":{"ha":614,"x_min":71,"x_max":618,"o":"m 618 160 l 585 0 l 232 0 l 71 0 l 275 963 l 436 963 l 265 160 l 618 160 z "},"m":{"ha":1139,"x_min":92,"x_max":1246,"o":"m 1246 964 l 1042 0 l 882 0 l 997 546 l 718 104 l 678 314 l 1086 964 l 1246 964 m 457 964 l 654 0 l 481 0 l 368 546 l 253 0 l 92 0 l 296 964 l 457 964 z "},"n":{"ha":982,"x_min":89,"x_max":1096,"o":"m 1096 963 l 922 144 l 811 385 l 935 963 l 1096 963 m 453 963 l 892 0 l 731 0 l 699 0 l 392 674 l 249 0 l 89 0 l 293 963 l 453 963 z "},"o":{"ha":978,"x_min":125,"x_max":1040,"o":"m 1022 561 l 989 401 q 924 245 971 318 q 812 117 878 172 q 667 31 746 63 q 504 0 588 0 l 460 0 q 310 31 376 0 q 201 117 243 63 q 142 245 158 172 q 143 401 125 318 l 176 561 q 242 717 194 644 q 355 845 289 790 q 501 931 421 900 q 664 963 581 963 l 708 963 q 858 931 792 963 q 966 845 924 900 q 1024 717 1008 790 q 1022 561 1040 644 m 829 401 l 863 561 q 864 655 874 611 q 829 732 854 699 q 764 784 804 765 q 674 803 724 803 l 629 803 q 532 784 579 803 q 444 732 485 765 q 376 655 404 699 q 338 561 349 611 l 304 401 q 303 308 293 351 q 338 231 313 264 q 403 180 364 199 q 493 161 443 161 l 538 161 q 635 180 588 161 q 723 231 683 199 q 790 308 763 264 q 829 401 818 351 z "},"p":{"ha":826,"x_min":97,"x_max":921,"o":"m 654 963 q 774 938 721 963 q 861 869 826 913 q 908 767 896 825 q 907 642 921 708 q 855 517 892 575 q 765 415 818 458 q 648 346 711 371 q 518 321 585 321 l 326 321 l 258 0 l 97 0 l 199 482 l 279 482 l 551 482 q 617 494 585 482 q 675 529 649 507 q 720 580 701 551 q 746 642 739 608 q 747 704 753 675 q 724 756 740 733 q 680 790 707 778 q 619 803 653 803 l 267 803 l 301 963 l 463 963 l 654 963 z "},"q":{"ha":975,"x_min":126,"x_max":1043,"o":"m 1026 563 l 992 401 q 953 292 979 343 q 886 192 928 242 l 821 371 q 826 386 824 378 q 831 401 829 394 l 865 563 q 866 656 875 613 q 831 733 857 700 q 765 784 806 765 q 675 803 725 803 l 631 803 q 533 784 581 803 q 447 733 486 765 q 378 656 407 700 q 340 563 350 613 l 306 401 q 304 308 294 351 q 340 231 314 264 q 405 180 365 199 q 494 161 444 161 l 539 161 q 615 172 575 161 l 553 346 l 738 346 l 818 122 q 669 28 742 57 q 506 0 596 0 l 461 0 q 311 32 378 0 q 202 118 244 64 q 143 245 160 172 q 144 401 126 318 l 179 563 q 244 719 196 646 q 357 846 292 792 q 502 932 422 900 q 665 964 582 964 l 710 964 q 859 932 793 964 q 968 846 925 900 q 1027 719 1011 792 q 1026 563 1043 646 z "},"r":{"ha":879,"x_min":99,"x_max":922,"o":"m 653 346 l 779 0 l 593 0 l 478 321 l 328 321 l 260 0 l 99 0 l 200 482 l 281 482 l 463 482 l 558 482 q 624 494 592 482 q 683 528 656 507 q 728 579 710 550 q 754 642 747 608 q 755 704 761 675 q 731 756 749 733 q 687 790 714 778 q 626 803 660 803 l 268 803 l 303 963 l 464 963 l 661 963 q 807 926 749 963 q 894 833 865 890 q 922 705 922 775 q 891 566 921 635 q 801 438 861 497 q 653 346 742 379 z "},"s":{"ha":869,"x_min":76,"x_max":978,"o":"m 875 482 l 842 321 q 790 196 826 254 q 699 94 753 138 q 583 25 646 50 q 453 0 519 0 l 76 0 l 110 161 l 486 161 q 551 174 519 161 q 609 208 582 186 q 654 258 636 229 q 681 321 672 288 l 714 482 l 875 482 m 978 964 l 943 803 l 567 803 q 502 790 533 803 q 444 756 471 778 q 398 705 417 733 q 372 643 379 676 l 338 482 l 178 482 l 213 643 q 264 768 226 710 q 354 870 301 826 q 471 939 407 914 q 601 964 535 964 l 978 964 z "},"t":{"ha":760,"x_min":199,"x_max":939,"o":"m 939 964 l 904 803 l 199 803 l 233 964 l 265 964 l 939 964 m 615 722 l 463 0 l 303 0 l 456 722 l 615 722 z "},"u":{"ha":960,"x_min":142,"x_max":1089,"o":"m 1089 963 l 969 401 q 904 245 951 318 q 791 117 857 172 q 646 31 725 63 q 483 0 567 0 l 476 0 q 326 31 393 0 q 217 117 260 63 q 158 245 174 172 q 160 401 142 318 l 279 963 l 440 963 l 354 561 l 321 401 q 319 308 310 351 q 355 231 329 264 q 420 180 381 199 q 510 161 460 161 l 517 161 q 615 180 567 161 q 702 231 663 199 q 769 308 742 264 q 808 401 797 351 l 842 561 l 928 963 l 1089 963 z "},"v":{"ha":1003,"x_min":217,"x_max":1193,"o":"m 1193 963 l 653 104 l 610 313 l 1019 963 l 1193 963 m 390 963 l 588 0 l 414 0 l 217 963 l 390 963 z "},"w":{"ha":1485,"x_min":218,"x_max":1676,"o":"m 1676 963 l 1135 104 l 1092 313 l 1501 963 l 1676 963 m 874 963 l 1071 0 l 896 0 l 821 369 l 653 104 l 611 313 l 778 578 l 699 963 l 874 963 m 1194 963 l 1018 682 l 975 890 l 1021 963 l 1194 963 m 392 963 l 589 0 l 415 0 l 218 963 l 392 963 z "},"x":{"ha":818,"x_min":71,"x_max":964,"o":"m 964 963 l 671 567 l 618 739 l 783 963 l 919 963 l 964 963 m 457 963 l 760 0 l 579 0 l 481 308 l 426 481 l 275 963 l 457 963 m 363 394 l 417 222 l 253 0 l 71 0 l 363 394 z "},"y":{"ha":828,"x_min":235,"x_max":1006,"o":"m 1006 963 l 689 603 l 622 747 l 813 963 l 1006 963 m 624 529 l 513 0 l 353 0 l 454 481 l 235 963 l 428 963 l 624 529 z "},"z":{"ha":875,"x_min":74,"x_max":1000,"o":"m 829 161 l 796 0 l 150 0 l 74 0 l 107 161 l 107 161 l 107 161 l 678 722 l 885 722 l 313 161 l 829 161 m 1000 964 l 965 803 l 243 803 l 278 964 l 1000 964 z "},"D":{"ha":913,"x_min":83,"x_max":971,"o":"m 569 964 q 749 926 669 964 q 880 823 829 889 q 951 669 931 757 q 949 482 971 582 q 871 294 928 382 q 735 142 814 207 q 560 38 656 76 q 365 0 465 0 l 164 0 l 83 0 l 236 722 l 396 722 l 276 161 l 399 161 q 529 186 465 161 q 646 255 593 211 q 736 357 699 299 q 788 482 774 415 q 789 607 801 549 q 742 709 776 665 q 655 778 708 753 q 535 803 601 803 l 333 803 l 253 803 l 288 964 l 368 964 l 569 964 z "},"!":{"ha":333,"x_min":94,"x_max":450,"o":"m 450 963 l 331 400 l 169 400 l 289 963 l 450 963 m 199 160 q 251 136 232 160 q 263 79 269 113 q 227 23 256 46 q 165 0 199 0 q 113 23 132 0 q 101 79 94 46 q 137 136 108 113 q 199 160 165 160 z "},",":{"ha":311,"x_min":58,"x_max":258,"o":"m 92 78 q 117 129 99 110 q 159 155 136 149 q 204 157 182 161 q 240 138 226 153 q 256 101 254 124 q 240 47 258 78 q 225 28 233 38 l 100 -78 q 69 -87 81 -93 q 63 -61 58 -82 l 92 78 z "},".":{"ha":281,"x_min":69,"x_max":243,"o":"m 172 160 q 224 137 206 160 q 236 81 243 114 q 201 24 229 47 q 139 0 172 0 q 88 24 107 0 q 76 81 69 47 q 112 137 83 114 q 172 160 140 160 z "},":":{"ha":281,"x_min":69,"x_max":414,"o":"m 172 160 q 224 137 206 160 q 236 81 243 114 q 201 24 229 47 q 139 0 172 0 q 88 24 107 0 q 76 81 69 47 q 112 137 83 114 q 172 160 140 160 m 343 964 q 395 941 376 964 q 407 885 414 918 q 372 828 400 851 q 310 804 343 804 q 259 828 278 804 q 247 885 240 851 q 283 941 254 918 q 343 964 311 964 z "},";":{"ha":281,"x_min":42,"x_max":414,"o":"m 343 964 q 395 941 376 964 q 407 885 414 918 q 372 828 400 851 q 310 804 343 804 q 259 828 278 804 q 247 885 240 851 q 283 941 254 918 q 343 964 311 964 m 75 78 q 101 129 82 110 q 142 155 119 149 q 188 157 165 161 q 224 138 210 153 q 240 101 238 124 q 224 47 242 78 q 208 28 217 38 l 83 -78 q 53 -87 64 -93 q 46 -61 42 -82 l 75 78 z "},"?":{"ha":776,"x_min":240,"x_max":864,"o":"m 850 642 l 799 401 l 638 401 l 689 642 q 690 704 696 675 q 666 756 683 733 q 622 790 649 778 q 561 803 594 803 l 240 803 l 275 963 l 596 963 q 715 938 663 963 q 803 869 768 913 q 851 767 838 825 q 850 642 864 708 m 425 161 q 477 138 458 161 q 489 81 496 114 q 453 24 482 47 q 392 0 425 0 q 340 24 358 0 q 329 81 322 47 q 364 138 336 114 q 425 161 392 161 z "},"B":{"ha":828,"x_min":82,"x_max":907,"o":"m 328 401 l 276 160 l 504 160 q 597 195 554 160 q 650 281 640 231 q 633 366 661 331 q 556 401 606 401 l 328 401 m 675 963 q 784 939 738 963 q 859 876 831 915 q 897 788 888 838 q 897 684 907 738 q 855 578 886 631 q 769 482 824 525 q 813 385 804 438 q 810 278 822 332 q 767 175 799 225 q 691 86 736 125 q 590 24 646 47 q 471 0 533 0 l 243 0 l 163 0 l 82 0 l 183 482 l 200 561 l 281 561 l 361 561 l 589 561 q 682 597 639 561 q 736 682 725 632 q 719 767 747 732 q 640 803 690 803 l 251 803 l 286 963 l 367 963 l 447 963 l 675 963 z "},"C":{"ha":775,"x_min":118,"x_max":918,"o":"m 747 160 l 714 0 l 519 0 q 340 38 419 0 q 208 140 260 75 q 137 293 156 206 q 139 481 118 381 q 216 668 160 581 q 352 822 272 756 q 528 925 432 888 q 724 963 624 963 l 918 963 l 883 801 l 689 801 q 558 776 622 801 q 440 708 493 751 q 350 606 388 664 q 299 481 313 547 q 297 356 285 414 q 344 253 310 297 q 433 185 379 210 q 553 160 486 160 l 747 160 z "},"A":{"ha":833,"x_min":15,"x_max":818,"o":"m 621 963 l 818 0 l 276 0 l 376 161 l 611 161 l 532 546 l 289 161 l 189 0 l 15 0 l 621 963 z "}}}
